PathFileType	3	(X/Y/Z)	D:\minhoCalibration\240510\subject3_KPNP\preferred\preferred04.trc
DataRate	CameraRate	NumFrames	NumMarkers	Units	OrigDataRate	OrigDataStartFrame	OrigNumFrames
200.0	200.0	15	10	mm	200.0	154	111	
Frame#	Time	Left_Ankle_Outer1			Left_Ankle_Inner1			Left_Knee_Outer1			Left_Knee_Inner1			Left_Wrist1			Right_Wrist1			Right_Knee_Inner1			Right_Knee_Outer1			Right_Ankle_Inner1			Right_Ankle_Outer1			
		X1	Y1	Z1	X2	Y2	Z2	X3	Y3	Z3	X4	Y4	Z4	X5	Y5	Z5	X6	Y6	Z6	X7	Y7	Z7	X8	Y8	Z8	X9	Y9	Z9	X10	Y10	Z10	
154	0.76	-338.94638	110.09261	-544.18054	-393.17676	121.93174	-527.30566	-195.4052	515.64642	-433.02148	-280.1564	525.9939	-376.67755	-159.96846	902.80145	-608.82874	-446.88123	1074.3647	-441.09277	-297.16901	876.74432	-91.483597	-384.1344	945.33136	-92.750977	-333.40955	685.27533	279.07388	-415.54224	739.5553	288.16324
155	0.765	-339.03253	108.60429	-545.28973	-393.492	120.19208	-528.50098	-196.95786	514.92365	-435.00174	-281.8696	524.953	-379.18057	-158.71399	904.47034	-606.49408	-450.79544	1070.0961	-441.1022	-298.62546	868.81189	-93.718864	-388.00937	935.24402	-92.790611	-337.13092	660.7804	268.30292	-421.54489	711.53583	277.46091
156	0.77	-339.724	106.35333	-545.98224	-393.46796	118.48727	-529.93536	-198.44595	514.00836	-437.12436	-283.27499	523.73364	-382.60394	-157.48622	905.83612	-603.94147	-454.74445	1065.4888	-441.32498	-300.0097	861.05383	-96.126198	-391.97919	925.22772	-93.558411	-341.08017	636.39435	256.37274	-427.76996	683.28119	265.46021
157	0.775	-339.46729	104.59878	-547.03235	-393.18073	116.72095	-531.40216	-199.75507	513.16534	-438.96106	-285.80286	522.46405	-384.53165	-156.45927	907.02692	-601.27972	-458.69922	1060.5742	-441.6572	-301.04813	853.50269	-98.930267	-396.06378	916.20197	-94.472389	-345.32831	611.47485	242.49362	-433.99619	654.65204	251.8217
158	0.78	-338.93024	102.79193	-548.09985	-392.75262	114.91015	-532.93823	-201.42729	512.51105	-440.21591	-287.99719	520.96503	-387.43393	-155.20009	908.0976	-598.5647	-462.44501	1055.2845	-442.14703	-302.60239	846.10162	-101.15493	-399.82214	906.8974	-95.843475	-349.82343	587.22626	227.98325	-440.32364	626.59595	236.83865
159	0.785	-337.43643	101.67046	-549.56146	-392.15231	113.04224	-534.53967	-202.47774	511.46353	-441.69702	-290.70074	519.10675	-390.79056	-154.16071	908.89648	-595.82086	-466.19666	1049.7914	-442.74863	-304.71246	838.97369	-102.7815	-403.91251	897.12433	-97.201523	-354.26779	563.29382	212.81528	-446.61469	598.53003	220.46329
160	0.79	-336.94159	99.565277	-550.53003	-391.42075	111.24031	-536.00275	-203.99329	510.71756	-442.58218	-292.65271	517.85162	-393.32162	-153.23396	909.42548	-593.15479	-469.7247	1044.043	-443.51025	-306.97583	831.87421	-104.41822	-407.94901	886.92004	-98.861847	-358.75671	539.58142	196.72691	-452.89215	570.47144	202.77415
161	0.795	-336.20773	97.672661	-551.41833	-390.79984	109.46848	-537.3631	-205.5701	509.71509	-443.26019	-295.23203	516.55029	-395.27008	-152.18004	909.86407	-590.5697	-472.965	1038.299	-444.41568	-309.30222	824.60614	-106.13107	-412.24692	876.15527	-100.77576	-363.30396	516.69012	180.10329	-459.01935	543.52222	183.70456
162	0.8	-335.1203	96.430321	-552.21295	-390.06226	107.7348	-538.74603	-206.7323	508.71808	-443.93542	-297.39706	515.08704	-397.80167	-151.36093	909.93256	-588.04993	-476.03555	1032.4901	-445.60641	-312.8132	816.70825	-107.68544	-416.89868	864.96155	-103.08036	-368.19391	493.49353	162.09705	-465.13049	516.51453	162.9254
163	0.805	-334.17368	95.069054	-552.92828	-389.44717	106.09143	-540.05414	-207.75153	507.69186	-444.49942	-299.69211	513.65881	-399.87686	-150.52127	909.81067	-585.69745	-478.7178	1026.6252	-447.24896	-316.2901	808.19672	-108.85765	-421.82748	853.28894	-105.88117	-373.09869	471.62302	144.53877	-470.88989	491.26486	141.49158
164	0.81	-334.5296	92.854446	-553.05762	-388.70013	104.06059	-540.67676	-208.77516	506.64532	-444.85071	-301.46912	512.34131	-402.14249	-149.75116	909.56281	-583.43091	-481.19174	1021.0858	-449.15887	-320.6933	798.97351	-110.02287	-426.9985	841.37781	-109.09689	-377.02307	448.30103	122.55285	-476.53043	466.40652	118.49112
165	0.815	-333.83469	91.829948	-553.63318	-388.31345	102.55593	-541.7038	-209.96268	505.62894	-445.04346	-303.25629	511.17767	-404.02954	-149.10965	909.00549	-581.33777	-483.47607	1016.0753	-450.91333	-325.0726	789.2301	-111.80166	-432.16846	829.09894	-112.76369	-383.65387	424.33545	102.29647	-481.95987	442.47116	94.57489
166	0.82	-333.89984	90.178131	-554.2251	-388.23145	101.19731	-542.58447	-210.67085	504.82846	-445.19641	-304.7168	510.00769	-406.15073	-148.71907	908.2771	-579.117	-485.19827	1010.8305	-452.97278	-329.55048	778.87714	-113.8086	-437.19159	816.63464	-116.43471	-387.10303	403.72009	78.133003	-487.17841	419.45956	69.661446
167	0.825	-334.03433	88.849449	-554.69897	-388.4566	99.87352	-543.177	-211.18848	504.2692	-445.35254	-306.37808	509.0639	-407.42267	-148.29251	907.38159	-576.9436	-487.15616	1006.6993	-454.89777	-333.94531	767.81067	-116.19458	-441.97504	803.74329	-121.31177	-391.84991	381.95593	53.901901	-492.18365	397.83978	44.070267
168	0.83	-333.71155	88.076996	-555.55017	-388.65234	98.55806	-543.74115	-212.6076	503.35675	-445.30536	-307.81619	508.02469	-408.86346	-148.06052	906.33472	-574.88867	-489.02927	1002.7491	-456.73407	-338.43805	755.98468	-119.00031	-446.46097	790.82318	-126.41724	-397.73651	361.14932	29.999092	-497.01352	377.09863	17.687069
